<svg xmlns="http://www.w3.org/2000/svg" viewBox="0 0 512 512" width="512" height="512">
  <defs>
    <linearGradient id="bg" x1="0%" y1="0%" x2="100%" y2="100%">
      <stop offset="0%" style="stop-color:#38bdf8"/>
      <stop offset="35%" style="stop-color:#818cf8"/>
      <stop offset="60%" style="stop-color:#a855f7"/>
      <stop offset="85%" style="stop-color:#ec4899"/>
      <stop offset="100%" style="stop-color:#f97316"/>
    </linearGradient>
    <linearGradient id="robot" x1="0%" y1="0%" x2="100%" y2="100%">
      <stop offset="0%" style="stop-color:#ffffff"/>
      <stop offset="100%" style="stop-color:#c7d2fe"/>
    </linearGradient>
    <linearGradient id="screen" x1="0%" y1="0%" x2="0%" y2="100%">
      <stop offset="0%" style="stop-color:#0f172a"/>
      <stop offset="100%" style="stop-color:#020617"/>
    </linearGradient>
    <radialGradient id="eye" cx="50%" cy="50%" r="50%">
      <stop offset="0%" style="stop-color:#ffffff"/>
      <stop offset="30%" style="stop-color:#67e8f9"/>
      <stop offset="70%" style="stop-color:#06b6d4"/>
      <stop offset="100%" style="stop-color:#0891b2"/>
    </radialGradient>
    <radialGradient id="antennaGlow" cx="50%" cy="50%" r="50%">
      <stop offset="0%" style="stop-color:#fef08a"/>
      <stop offset="50%" style="stop-color:#facc15"/>
      <stop offset="100%" style="stop-color:#f59e0b"/>
    </radialGradient>
    <filter id="neonBlue" x="-50%" y="-50%" width="200%" height="200%">
      <feGaussianBlur stdDeviation="6" result="blur"/>
      <feFlood flood-color="#22d3ee" flood-opacity="0.9" result="color"/>
      <feComposite in="color" in2="blur" operator="in" result="glow"/>
      <feMerge><feMergeNode in="glow"/><feMergeNode in="glow"/><feMergeNode in="SourceGraphic"/></feMerge>
    </filter>
    <filter id="neonYellow" x="-30%" y="-30%" width="160%" height="160%">
      <feGaussianBlur stdDeviation="5" result="blur"/>
      <feFlood flood-color="#fde68a" flood-opacity="0.6" result="color"/>
      <feComposite in="color" in2="blur" operator="in" result="glow"/>
      <feMerge><feMergeNode in="glow"/><feMergeNode in="SourceGraphic"/></feMerge>
    </filter>
    <filter id="neonPink" x="-50%" y="-50%" width="200%" height="200%">
      <feGaussianBlur stdDeviation="10" result="blur"/>
      <feFlood flood-color="#f472b6" flood-opacity="0.7" result="color"/>
      <feComposite in="color" in2="blur" operator="in" result="glow"/>
      <feMerge><feMergeNode in="glow"/><feMergeNode in="glow"/><feMergeNode in="SourceGraphic"/></feMerge>
    </filter>
    <filter id="bigShadow" x="-20%" y="-20%" width="150%" height="150%">
      <feDropShadow dx="0" dy="4" stdDeviation="12" flood-color="#7c3aed" flood-opacity="0.4"/>
    </filter>
  </defs>

  <!-- Háttér -->
  <rect width="512" height="512" rx="112" ry="112" fill="url(#bg)"/>

  <!-- Robot - NAGY, középen -->
  <g filter="url(#bigShadow)" transform="translate(256,256) scale(1.05) translate(-256,-256)">
    <!-- Antenna rúd -->
    <rect x="250" y="68" width="8" height="44" rx="4" fill="#94a3b8"/>
    <!-- Antenna gömb -->
    <g filter="url(#neonYellow)">
      <circle cx="254" cy="58" r="20" fill="url(#antennaGlow)"/>
    </g>

    <!-- Fülek -->
    <rect x="104" y="165" width="24" height="42" rx="12" fill="#e2e8f0" stroke="#22d3ee" stroke-width="2"/>
    <circle cx="116" cy="186" r="6" fill="#22d3ee" opacity="0.8"/>
    <rect x="380" y="165" width="24" height="42" rx="12" fill="#e2e8f0" stroke="#22d3ee" stroke-width="2"/>
    <circle cx="392" cy="186" r="6" fill="#22d3ee" opacity="0.8"/>

    <!-- Fej -->
    <rect x="126" y="108" width="256" height="148" rx="52" fill="url(#robot)" stroke="#a5b4fc" stroke-width="2.5"/>

    <!-- Arc kijelző -->
    <rect x="154" y="132" width="200" height="104" rx="34" fill="url(#screen)" stroke="#334155" stroke-width="1.5"/>

    <!-- Szemek -->
    <g filter="url(#neonBlue)">
      <circle cx="216" cy="178" r="26" fill="url(#eye)"/>
      <circle cx="292" cy="178" r="26" fill="url(#eye)"/>
    </g>
    <!-- Szem csillanás -->
    <circle cx="206" cy="168" r="10" fill="rgba(255,255,255,0.85)"/>
    <circle cx="282" cy="168" r="10" fill="rgba(255,255,255,0.85)"/>
    <circle cx="224" cy="188" r="4" fill="rgba(255,255,255,0.4)"/>
    <circle cx="300" cy="188" r="4" fill="rgba(255,255,255,0.4)"/>

    <!-- Mosoly -->
    <g filter="url(#neonBlue)">
      <path d="M222,216 Q254,244 286,216" stroke="#22d3ee" stroke-width="5" fill="none" stroke-linecap="round"/>
    </g>

    <!-- Nyak -->
    <rect x="238" y="254" width="32" height="22" rx="6" fill="#cbd5e1"/>

    <!-- Vállak -->
    <circle cx="154" cy="288" r="16" fill="#e2e8f0" stroke="#a5b4fc" stroke-width="2"/>
    <circle cx="354" cy="288" r="16" fill="#e2e8f0" stroke="#a5b4fc" stroke-width="2"/>

    <!-- Karok - integetős -->
    <rect x="96" y="258" width="34" height="86" rx="17" fill="url(#robot)" stroke="#a5b4fc" stroke-width="2" transform="rotate(-25,113,258)"/>
    <rect x="378" y="258" width="34" height="86" rx="17" fill="url(#robot)" stroke="#a5b4fc" stroke-width="2" transform="rotate(25,395,258)"/>
    <!-- Kezek -->
    <circle cx="78" cy="298" r="16" fill="#e2e8f0" stroke="#a5b4fc" stroke-width="2"/>
    <circle cx="430" cy="298" r="16" fill="#e2e8f0" stroke="#a5b4fc" stroke-width="2"/>

    <!-- Törzs -->
    <rect x="148" y="274" width="212" height="116" rx="30" fill="url(#robot)" stroke="#a5b4fc" stroke-width="2.5"/>

    <!-- Mellkas panel -->
    <rect x="218" y="294" width="72" height="72" rx="20" fill="url(#screen)" stroke="#22d3ee" stroke-width="2.5"/>

    <!-- Szív -->
    <g filter="url(#neonPink)">
      <text x="254" y="344" text-anchor="middle" font-size="44">❤️</text>
    </g>

    <!-- LED-ek -->
    <g filter="url(#neonBlue)">
      <circle cx="232" cy="360" r="5" fill="#22d3ee"/>
      <circle cx="254" cy="360" r="5" fill="#67e8f9"/>
      <circle cx="276" cy="360" r="5" fill="#22d3ee"/>
    </g>

    <!-- Lábak -->
    <rect x="194" y="388" width="40" height="50" rx="14" fill="#e2e8f0" stroke="#a5b4fc" stroke-width="2"/>
    <rect x="278" y="388" width="40" height="50" rx="14" fill="#e2e8f0" stroke="#a5b4fc" stroke-width="2"/>
    <!-- Cipők -->
    <rect x="184" y="430" width="56" height="18" rx="9" fill="#94a3b8" stroke="#a5b4fc" stroke-width="1.5"/>
    <rect x="272" y="430" width="56" height="18" rx="9" fill="#94a3b8" stroke="#a5b4fc" stroke-width="1.5"/>
  </g>
</svg>
